<?xml version="1.0" encoding="utf-8"?><!DOCTYPE svg PUBLIC "-//W3C//DTD SVG 1.1//EN" "http://www.w3.org/Graphics/SVG/1.1/DTD/svg11.dtd"> <svg version="1.1" xmlns="http://www.w3.org/2000/svg" xmlns:xlink="http://www.w3.org/1999/xlink" x="0px" y="0px" width="40px" height="40px" viewBox="0 0 40 40" enable-background="new 0 0 40 40" xml:space="preserve"><path fill="#007BB5" d="M37.811,40.021c1.22,0,2.21-0.989,2.21-2.21V2.194c0-1.221-0.989-2.21-2.21-2.21H2.194 c-1.221,0-2.21,0.989-2.21,2.21v35.617c0,1.22,0.989,2.21,2.21,2.21H37.811z"/> <path opacity="0" fill="#FFFFFF" d="M34.76,10.849c-1.086,0.482-2.253,0.807-3.478,0.954c1.25-0.749,2.21-1.936,2.663-3.35 c-1.17,0.694-2.466,1.198-3.845,1.469c-1.105-1.177-2.678-1.912-4.42-1.912c-3.344,0-6.056,2.711-6.056,6.055 c0,0.475,0.054,0.937,0.157,1.38c-5.033-0.252-9.495-2.663-12.481-6.327c-0.521,0.894-0.82,1.935-0.82,3.044 c0,2.101,1.069,3.954,2.694,5.04c-0.993-0.031-1.926-0.304-2.743-0.757c0,0.025-0.001,0.051-0.001,0.076 c0,2.934,2.087,5.381,4.858,5.938c-0.508,0.138-1.043,0.212-1.595,0.212c-0.39,0-0.77-0.038-1.139-0.109 c0.771,2.406,3.007,4.156,5.657,4.205c-2.072,1.624-4.683,2.592-7.52,2.592c-0.489,0-0.971-0.029-1.445-0.085 c2.68,1.718,5.863,2.721,9.282,2.721c11.138,0,17.229-9.227,17.229-17.229c0-0.263-0.006-0.524-0.018-0.783 C32.922,13.13,33.948,12.063,34.76,10.849z"/><path fill="#FFFFFF" d="M5.732,15.054h6.119v19.68H5.732V15.054z M8.792,5.27c1.956,0,3.545,1.589,3.545,3.546 c0,1.958-1.589,3.548-3.545,3.548c-1.961,0-3.546-1.589-3.546-3.548C5.246,6.859,6.831,5.27,8.792,5.27"/><path fill="#FFFFFF" d="M15.687,15.054h5.868v2.688h0.084c0.817-1.547,2.812-3.179,5.788-3.179c6.189,0,7.333,4.075,7.333,9.376 v10.795h-6.11v-9.57c0-2.284-0.045-5.219-3.179-5.219c-3.183,0-3.669,2.487-3.669,5.054v9.736h-6.115V15.054z"/></svg>